<?xml version="1.0" encoding="UTF-8"?>
<svg width="148px" height="26px" viewBox="0 0 148 26" version="1.1" xmlns="http://www.w3.org/2000/svg" xmlns:xlink="http://www.w3.org/1999/xlink">
    <title>Logo</title>
    <g id="Page-1" stroke="none" stroke-width="1" fill="none" fill-rule="evenodd">
        <g id="Dark" transform="translate(-138.000000, -27.000000)" fill="#FFFFFF">
            <g id="Header" transform="translate(138.000000, 26.000000)">
                <g id="Logo" transform="translate(0.000000, 1.000000)">
                    <g fill-rule="nonzero" id="Group">
                        <g>
                            <path d="M9,0 L1,0 C0.448,0 0,0.448 0,1 L0,9 C0,9.552 0.448,10 1,10 L9,10 C9.552,10 10,9.552 10,9 L10,1 C10,0.448 9.552,0 9,0 Z" id="Shape"></path>
                            <path d="M19,10 C21.757,10 24,7.757 24,5 C24,2.243 21.757,0 19,0 C16.243,0 14,2.243 14,5 C14,7.757 16.243,10 19,10 Z" id="Shape"></path>
                            <path d="M5.8945,14.5525 C5.725,14.214 5.3785,14 5,14 C4.6215,14 4.275,14.214 4.1055,14.5525 L0.1055,22.5525 C-0.0495,22.8625 -0.033,23.2305 0.1495,23.5255 C0.3315,23.8205 0.6535,24 1,24 L9,24 C9.3465,24 9.6685,23.8205 9.8505,23.526 C10.033,23.231 10.049,22.863 9.8945,22.553 L5.8945,14.5525 Z" id="Shape"></path>
                            <path d="M23.5847621,15.4781792 C23.8485384,15.9245711 24,16.4448936 24,17 L24,17 L24,17.233 L17.233,24 L17,24 C16.4448936,24 15.9245711,23.8485384 15.4781792,23.5847621 Z M24,20.061 L24,21 C24,22.6545 22.6545,24 21,24 L21,24 L20.061,24 L24,20.061 Z M21,14 C21.3677929,14 21.7203161,14.0664901 22.0461833,14.1880841 L14.1880841,22.0461833 C14.0664901,21.7203161 14,21.3677929 14,21 L14,21 L14,20.562 L20.562,14 Z M17.733,14 L14,17.733 L14,17 C14,15.4045893 15.2511091,14.0965013 16.8239618,14.0051014 L17,14 L17.733,14 Z" id="Combined-Shape"></path>
                        </g>
                    </g>
                    <path d="M47.936,25 L46.176,20.072 L37.92,20.072 L36.128,25 L32.064,25 L40.48,2.728 L43.616,2.728 L52.032,25 L47.936,25 Z M43.552,12.264 L42.08,7.688 L41.984,7.688 L40.544,12.168 L39.04,16.776 L45.024,16.776 L43.552,12.264 Z M61.628,25 L61.628,23.528 L61.564,23.464 C61.0093305,24.0826698 60.3800035,24.5199987 59.676,24.776 C58.9719964,25.0320013 58.27867,25.16 57.596,25.16 C56.337327,25.16 55.3346704,24.9146691 54.588,24.424 C53.8413296,23.9333309 53.2760019,23.2986706 52.892,22.52 C52.507998,21.7413294 52.2573339,20.8613382 52.14,19.88 C52.022666,18.8986618 51.964,17.9280048 51.964,16.968 C51.964,16.0719955 52.0493324,15.1493381 52.22,14.2 C52.3906675,13.2506619 52.6999977,12.3866706 53.148,11.608 C53.5960022,10.8293294 54.2093294,10.1946691 54.988,9.704 C55.7666705,9.21333088 56.7639939,8.968 57.98,8.968 C58.66267,8.968 59.32933,9.09599872 59.98,9.352 C60.6306699,9.60800128 61.1586646,9.99199744 61.564,10.504 L61.628,10.472 L61.628,1.768 L65.244,1.768 L65.244,25 L61.628,25 Z M61.628,17.064 C61.628,16.5733309 61.6013336,16.0560027 61.548,15.512 C61.4946664,14.9679973 61.3666676,14.466669 61.164,14.008 C60.9613323,13.549331 60.6680019,13.1706682 60.284,12.872 C59.899998,12.5733318 59.3773366,12.424 58.716,12.424 C58.0119964,12.424 57.4626686,12.5786651 57.068,12.888 C56.6733313,13.1973349 56.3693344,13.5866643 56.156,14.056 C55.9426656,14.5253357 55.8093336,15.0479971 55.756,15.624 C55.7026664,16.2000029 55.676,16.754664 55.676,17.288 C55.676,17.7786691 55.7026664,18.290664 55.756,18.824 C55.8093336,19.357336 55.9426656,19.8426645 56.156,20.28 C56.3693344,20.7173355 56.667998,21.0746653 57.052,21.352 C57.4360019,21.6293347 57.9693299,21.768 58.652,21.768 C59.3133366,21.768 59.8413313,21.6133349 60.236,21.304 C60.6306686,20.9946651 60.9346656,20.6053357 61.148,20.136 C61.3613344,19.6666643 61.4946664,19.1600027 61.548,18.616 C61.6013336,18.0719973 61.628,17.5546691 61.628,17.064 Z M76.4079999,25 L76.4079999,23.528 L76.3439999,23.464 C75.7893305,24.0826698 75.1600034,24.5199987 74.4559999,24.776 C73.7519964,25.0320013 73.05867,25.16 72.3759999,25.16 C71.1173269,25.16 70.1146703,24.9146691 69.3679999,24.424 C68.6213295,23.9333309 68.0560018,23.2986706 67.6719999,22.52 C67.287998,21.7413294 67.0373338,20.8613382 66.9199999,19.88 C66.802666,18.8986618 66.7439999,17.9280048 66.7439999,16.968 C66.7439999,16.0719955 66.8293324,15.1493381 66.9999999,14.2 C67.1706674,13.2506619 67.4799977,12.3866706 67.9279999,11.608 C68.3760021,10.8293294 68.9893293,10.1946691 69.7679999,9.704 C70.5466705,9.21333088 71.5439938,8.968 72.7599999,8.968 C73.44267,8.968 74.10933,9.09599872 74.7599999,9.352 C75.4106698,9.60800128 75.9386645,9.99199744 76.3439999,10.504 L76.4079999,10.472 L76.4079999,1.768 L80.0239999,1.768 L80.0239999,25 L76.4079999,25 Z M76.4079999,17.064 C76.4079999,16.5733309 76.3813335,16.0560027 76.3279999,15.512 C76.2746663,14.9679973 76.1466676,14.466669 75.9439999,14.008 C75.7413322,13.549331 75.4480018,13.1706682 75.0639999,12.872 C74.679998,12.5733318 74.1573365,12.424 73.4959999,12.424 C72.7919964,12.424 72.2426685,12.5786651 71.8479999,12.888 C71.4533313,13.1973349 71.1493343,13.5866643 70.9359999,14.056 C70.7226655,14.5253357 70.5893335,15.0479971 70.5359999,15.624 C70.4826663,16.2000029 70.4559999,16.754664 70.4559999,17.288 C70.4559999,17.7786691 70.4826663,18.290664 70.5359999,18.824 C70.5893335,19.357336 70.7226655,19.8426645 70.9359999,20.28 C71.1493343,20.7173355 71.447998,21.0746653 71.8319999,21.352 C72.2160018,21.6293347 72.7493298,21.768 73.4319999,21.768 C74.0933365,21.768 74.6213313,21.6133349 75.0159999,21.304 C75.4106685,20.9946651 75.7146655,20.6053357 75.9279999,20.136 C76.1413343,19.6666643 76.2746663,19.1600027 76.3279999,18.616 C76.3813335,18.0719973 76.4079999,17.5546691 76.4079999,17.064 Z M93.8439999,20.168 C93.8439999,20.9573373 93.6733349,21.6613302 93.3319999,22.28 C92.9906648,22.8986698 92.5266695,23.4266645 91.9399999,23.864 C91.3533303,24.3013355 90.6706704,24.6319989 89.8919999,24.856 C89.1133293,25.0800011 88.2760043,25.192 87.3799999,25.192 C86.2066607,25.192 85.0386723,25.0320016 83.8759999,24.712 C82.7133274,24.3919984 81.5880053,23.7520048 80.4999999,22.792 L82.4519999,20.2 C83.1986703,20.8826701 83.993329,21.3679986 84.8359999,21.656 C85.6786707,21.9440014 86.5799951,22.088 87.5399999,22.088 C88.3080037,22.088 88.9586639,21.9280016 89.4919999,21.608 C90.0253359,21.2879984 90.2919999,20.8400029 90.2919999,20.264 C90.2919999,19.7093306 90.0680021,19.298668 89.6199999,19.032 C89.1719976,18.765332 88.4573381,18.5786672 87.4759999,18.472 C86.7719963,18.3866662 86.0626701,18.2800006 85.3479999,18.152 C84.6333296,18.0239994 83.9880027,17.8000016 83.4119999,17.48 C82.835997,17.1599984 82.3666683,16.7226694 82.0039999,16.168 C81.6413314,15.6133306 81.4599999,14.8773379 81.4599999,13.96 C81.4599999,13.1493293 81.6199983,12.4346698 81.9399999,11.816 C82.2600015,11.1973302 82.6866639,10.6800021 83.2199999,10.264 C83.7533359,9.84799792 84.3773296,9.5333344 85.0919999,9.32 C85.8066701,9.1066656 86.5693291,9 87.3799999,9 C88.5960059,9 89.6946616,9.133332 90.6759999,9.4 C91.6573381,9.666668 92.5853288,10.1306634 93.4599999,10.792 L91.7319999,13.544 C90.9853295,13.0533309 90.2440035,12.7013344 89.5079999,12.488 C88.7719962,12.2746656 88.0840031,12.168 87.4439999,12.168 C86.5906623,12.168 85.9506687,12.3333317 85.5239999,12.664 C85.0973311,12.9946683 84.8839999,13.3946643 84.8839999,13.864 C84.8839999,14.397336 85.1826635,14.7813322 85.7799999,15.016 C86.3773362,15.2506678 87.3373266,15.4426659 88.6599999,15.592 C89.3000031,15.6560003 89.9346634,15.7786658 90.5639999,15.96 C91.1933363,16.1413342 91.7479975,16.402665 92.2279999,16.744 C92.7080023,17.085335 93.0973317,17.5333306 93.3959999,18.088 C93.694668,18.6426694 93.8439999,19.3359958 93.8439999,20.168 Z M100.048,25 C98.8746606,25 97.9040036,24.6586701 97.1359998,23.976 C96.367996,23.2933299 95.9839998,22.3120064 95.9839998,21.032 L95.9839998,12.072 L94.1599998,12.072 L94.1599998,9.128 L96.0159998,9.128 L96.0159998,5 L99.5359998,5 L99.5359998,9.128 L101.968,9.128 L101.968,12.072 L99.5679998,12.072 L99.5679998,20.04 C99.5679998,20.5946694 99.6746654,21.0319984 99.8879998,21.352 C100.101334,21.6720016 100.48533,21.832 101.04,21.832 L102.224,21.832 L102.224,25 L100.048,25 Z M110.156,12.36 C109.281329,12.36 108.566669,12.626664 108.012,13.16 C107.45733,13.693336 107.18,14.4719949 107.18,15.496 L107.18,25.032 L103.564,25.032 L103.564,9.16 L107.116,9.16 L107.116,11.048 L107.244,11.048 C108.204005,9.68265984 109.483992,9 111.084,9 C111.681336,9 112.225331,9.06399936 112.716,9.192 C113.206669,9.32000064 113.665331,9.53333184 114.092,9.832 L112.748,13.096 C112.299998,12.8186653 111.862669,12.6266672 111.436,12.52 C111.009331,12.4133328 110.582669,12.36 110.156,12.36 Z M119.432,9 C120.328004,9 121.170662,9.0799992 121.96,9.24 C122.749337,9.4000008 123.442663,9.68266464 124.04,10.088 C124.637336,10.4933354 125.111998,11.0319966 125.464,11.704 C125.816001,12.3760034 125.992,13.2239949 125.992,14.248 L125.992,25 L122.376,25 L122.376,23.592 L122.312,23.56 C121.885331,24.1146694 121.293337,24.5199987 120.536,24.776 C119.778663,25.0320013 118.99467,25.16 118.184,25.16 C116.498658,25.16 115.165338,24.7493374 114.184,23.928 C113.202661,23.1066626 112.712,21.9280077 112.712,20.392 C112.712,19.7519968 112.829332,19.1440029 113.064,18.568 C113.298668,17.9919971 113.639997,17.4853355 114.088,17.048 C114.536002,16.6106645 115.095996,16.2640013 115.768,16.008 C116.440003,15.7519987 117.213329,15.624 118.088,15.624 L122.376,15.624 L122.376,14.472 C122.376,14.1733318 122.328,13.8853347 122.232,13.608 C122.135999,13.3306653 121.970668,13.0906677 121.736,12.888 C121.501332,12.6853323 121.181335,12.5200006 120.776,12.392 C120.370664,12.2639994 119.858669,12.2 119.24,12.2 C118.365329,12.2 117.629336,12.3119989 117.032,12.536 C116.434663,12.7600011 115.912002,13.0853312 115.464,13.512 L113.544,11.08 C114.312004,10.3119962 115.207995,9.77333488 116.232,9.464 C117.256005,9.15466512 118.322661,9 119.432,9 Z M116.136,20.136 C116.136,20.3706678 116.183999,20.6053322 116.28,20.84 C116.376,21.0746678 116.535999,21.2826658 116.76,21.464 C116.984001,21.6453342 117.271998,21.7946661 117.624,21.912 C117.976001,22.0293339 118.418664,22.088 118.952,22.088 C119.357335,22.088 119.751998,22.050667 120.136,21.976 C120.520002,21.901333 120.866665,21.7786675 121.176,21.608 C121.485335,21.4373325 121.746665,21.2133347 121.96,20.936 C122.173334,20.6586653 122.301333,20.3066688 122.344,19.88 C122.365333,19.7519994 122.376,19.592001 122.376,19.4 L122.376,18.376 L118.696,18.376 C117.778662,18.376 117.122668,18.546665 116.728,18.888 C116.333331,19.229335 116.136,19.6453309 116.136,20.136 Z M139.62,22.856 C138.851996,23.6026704 137.998671,24.1786646 137.06,24.584 C136.121328,24.9893354 135.108005,25.192 134.02,25.192 C133.059995,25.192 132.142671,25.0373349 131.268,24.728 C130.393329,24.4186651 129.620003,23.9386699 128.948,23.288 C128.275996,22.6373301 127.742668,21.8000051 127.348,20.776 C126.953331,19.7519949 126.756,18.5253405 126.756,17.096 C126.756,15.6666595 126.963998,14.4400051 127.38,13.416 C127.796002,12.3919949 128.34533,11.5493366 129.028,10.888 C129.71067,10.2266634 130.499995,9.74666816 131.396,9.448 C132.292004,9.14933184 133.209328,9 134.148,9 C136.26001,9 138.062659,9.7466592 139.556,11.24 L137.22,13.768 C136.281328,12.7866618 135.278672,12.296 134.212,12.296 C132.995994,12.296 132.068003,12.6799962 131.428,13.448 C130.787996,14.2160038 130.468,15.4319917 130.468,17.096 C130.468,18.7386749 130.782663,19.9439962 131.412,20.712 C132.041336,21.4800038 132.963994,21.864 134.18,21.864 C134.713336,21.864 135.246664,21.7253347 135.78,21.448 C136.313336,21.1706653 136.803997,20.8080022 137.252,20.36 L139.62,22.856 Z M145.408,25 C144.23466,25 143.264003,24.6586701 142.496,23.976 C141.727996,23.2933299 141.344,22.3120064 141.344,21.032 L141.344,12.072 L139.52,12.072 L139.52,9.128 L141.376,9.128 L141.376,5 L144.896,5 L144.896,9.128 L147.328,9.128 L147.328,12.072 L144.928,12.072 L144.928,20.04 C144.928,20.5946694 145.034665,21.0319984 145.248,21.352 C145.461334,21.6720016 145.84533,21.832 146.4,21.832 L147.584,21.832 L147.584,25 L145.408,25 Z" id="Addstract"></path>
                </g>
            </g>
        </g>
    </g>
</svg>